<svg id="Layer_1" data-name="Layer 1" xmlns="http://www.w3.org/2000/svg" viewBox="0 0 160 160"><defs><style>.cls-1{fill:#ffd00d;}</style></defs><polygon class="cls-1" points="1 79.95 41.17 74.07 4.54 56.6 44.66 62.79 14.83 35.33 51.34 53.04 30.95 18.03 60.6 45.69 51.47 6.24 71.63 41.38 74.56 1 83.44 40.51 98.17 2.78 94.98 43.14 120.21 11.42 105.23 49.05 138.71 26.16 113.27 57.71 152.04 45.68 118.4 68.36 159 68.25 120.16 80.03 158.98 91.87 118.39 91.71 151.99 114.43 113.24 102.34 138 133.37 105.18 110.99 120.11 148.64 94.92 116.89 98.06 157.25 83.38 119.51 74.45 159 71.57 118.62 51.37 153.73 60.56 114.29 30.87 141.91 51.3 106.93 14.77 124.59 44.64 97.17 4.51 103.3 41.16 85.88 1 79.95"/></svg>
