<?xml version="1.0" encoding="UTF-8"?>
<svg version="1.1" xmlns="http://www.w3.org/2000/svg" width="719" height="189">
<path d="M0 0 C1.72258403 1.48361283 3.43247395 2.98218632 5.125 4.5 C5.75921875 5.05171875 6.3934375 5.6034375 7.046875 6.171875 C22.61443369 20.59686058 32.23105798 43.43406196 33.125 64.5 C33.16496094 65.32242188 33.20492187 66.14484375 33.24609375 66.9921875 C33.87281576 92.42972777 24.45103327 115.22936234 7.125 133.5 C-7.58667289 148.36052624 -28.78654406 158.67088122 -49.875 159.5 C-50.84566406 159.53996094 -51.81632812 159.57992187 -52.81640625 159.62109375 C-77.3807561 160.12361354 -99.74137013 151.97690289 -117.875 135.5 C-118.50664063 134.94957031 -119.13828125 134.39914063 -119.7890625 133.83203125 C-135.93778215 118.89999596 -144.88568505 96.13410501 -146.09765625 74.53125 C-146.81662433 50.39565871 -139.30791087 28.36581943 -123.375 10.125 C-121.89397851 8.56509248 -120.39464242 7.02230846 -118.875 5.5 C-118.20210937 4.81550781 -117.52921875 4.13101562 -116.8359375 3.42578125 C-85.33989965 -26.59572299 -33.44627443 -26.86667946 0 0 Z " fill="#224586" transform="translate(155.875,24.5)"/>
<path d="M0 0 C6.31349344 -0.06932262 12.6256365 -0.12891963 18.93920898 -0.16479492 C21.08150741 -0.17976927 23.22377579 -0.20015595 25.3659668 -0.22631836 C48.20600862 -0.49803334 48.20600862 -0.49803334 59 3 C59.9163623 3.29011963 60.83272461 3.58023926 61.77685547 3.87915039 C68.59585933 6.16573352 73.73440755 10.18879877 79 15 C79.94166016 15.85851562 79.94166016 15.85851562 80.90234375 16.734375 C91.9546911 28.06240448 96.92411032 44.48585747 97.375 59.9375 C96.90735781 76.67909053 92.12754832 91.62893742 80.3203125 103.81640625 C63.22018992 119.90894585 43.90865525 120.48525833 21.5 120.1875 C19.50131229 120.17241005 17.50261342 120.15872935 15.50390625 120.14648438 C10.66875962 120.11643997 5.83520606 120.05766368 1 120 C1 107.46 1 94.92 1 82 C10.375 81.625 10.375 81.625 13.32568359 81.52197266 C14.47544678 81.46855713 14.47544678 81.46855713 15.6484375 81.4140625 C16.43395996 81.3826416 17.21948242 81.3512207 18.02880859 81.31884766 C20.23002939 81.1600535 20.23002939 81.1600535 22 79 C25.53571429 79.53571429 25.53571429 79.53571429 27 81 C27.125 83.5 27.125 83.5 27 86 C26 87 26 87 23.4375 87.0625 C22.633125 87.041875 21.82875 87.02125 21 87 C20.67 86.01 20.34 85.02 20 84 C17.36 84 14.72 84 12 84 C12 85.65 12 87.3 12 89 C19.59 89 27.18 89 35 89 C34.855625 86.380625 34.71125 83.76125 34.5625 81.0625 C34.51939697 80.2362915 34.47629395 79.41008301 34.43188477 78.55883789 C34.53795177 74.97955708 34.53795177 74.97955708 33 72 C32.875 69.5 32.875 69.5 33 67 C34 66 34 66 36.5 65.875 C39 66 39 66 40 67 C40.04063832 68.66617115 40.042721 70.33388095 40 72 C39.01 72.33 38.02 72.66 37 73 C37 78.28 37 83.56 37 89 C38.60875 88.87625 40.2175 88.7525 41.875 88.625 C42.77992187 88.55539063 43.68484375 88.48578125 44.6171875 88.4140625 C47.17941903 88.20431868 47.17941903 88.20431868 49 86 C52.53571429 86.53571429 52.53571429 86.53571429 54 88 C54.04063832 89.66617115 54.042721 91.33388095 54 93 C51.625 93.625 51.625 93.625 49 94 C48.01 93.01 48.01 93.01 47 92 C44.42420615 91.75470419 41.94770993 91.62658207 39.3671875 91.5859375 C38.61535187 91.56657135 37.86351624 91.5472052 37.08889771 91.5272522 C34.68438101 91.46740853 32.27981656 91.42105274 29.875 91.375 C28.24607272 91.33682454 26.61716572 91.29777307 24.98828125 91.2578125 C20.99235194 91.16170334 16.99632813 91.07769059 13 91 C13 92.32 13 93.64 13 95 C19.6 95 26.2 95 33 95 C33.495 93.515 33.495 93.515 34 92 C35.65 92.33 37.3 92.66 39 93 C39.625 95.375 39.625 95.375 40 98 C39.34 98.66 38.68 99.32 38 100 C34.41411676 99.61233695 31.30012079 98.41433748 28 97 C28.144375 98.258125 28.28875 99.51625 28.4375 100.8125 C28.51871094 101.52019531 28.59992188 102.22789062 28.68359375 102.95703125 C28.97170735 105.19396393 28.97170735 105.19396393 30 108 C44.26598701 107.51498989 59.28891778 106.72573469 70.49609375 96.6484375 C80.91615815 85.22696431 83.87729714 71.28787604 83.3203125 56.2734375 C82.54634583 43.68395093 78.0248644 32.28565385 69.37109375 23.04296875 C60.74483095 15.61045566 49.92347405 12.76917044 38.78125 12.5859375 C37.66623108 12.55688828 37.66623108 12.55688828 36.52868652 12.5272522 C34.18590277 12.4681181 31.84306808 12.42134004 29.5 12.375 C27.89841767 12.33675906 26.29685457 12.29770391 24.6953125 12.2578125 C20.79698277 12.16095959 16.89882403 12.0808708 13 12 C13 19.59 13 27.18 13 35 C8.71 35 4.42 35 0 35 C0 23.45 0 11.9 0 0 Z " fill="#F8F9FB" transform="translate(68,33)"/>
<path d="M0 0 C4.15319441 3.79516041 7.29782447 8.94831948 9.8125 13.9375 C9.4825 14.5975 9.1525 15.2575 8.8125 15.9375 C6.26744659 15.90425108 3.73083268 15.83685637 1.1875 15.75 C0.47464844 15.74419922 -0.23820312 15.73839844 -0.97265625 15.73242188 C-6.70135499 15.49591596 -9.06648286 13.8764398 -13.1875 9.9375 C-18.23617584 7.46925848 -22.82768117 7.60957361 -28.1875 8.9375 C-34.32229552 12.17852405 -37.94005717 16.41513399 -40.1875 22.9375 C-41.18600381 29.77987872 -40.3430097 35.72621949 -36.92578125 41.76171875 C-33.75419871 45.73154229 -30.05613621 47.65144515 -25.1875 48.9375 C-18.72155026 49.45021848 -14.15576564 48.01402565 -9.1875 43.9375 C-8.8575 43.6075 -8.5275 43.2775 -8.1875 42.9375 C-5.32482433 42.86424832 -2.486781 42.84511795 0.375 42.875 C1.18130859 42.87951172 1.98761719 42.88402344 2.81835938 42.88867188 C4.81643756 42.90049482 6.81447783 42.91843086 8.8125 42.9375 C6.76410678 49.86067515 3.45446126 54.69714201 -2.765625 58.5234375 C-12.40039504 63.3971662 -23.55047011 64.9365424 -34.125 61.875 C-42.61372333 58.39203146 -49.12788332 52.10877973 -53.1875 43.9375 C-57.63088564 32.29044369 -57.01675504 22.41408256 -52.1875 10.9375 C-47.45422759 2.97060585 -40.91677814 -2.88866542 -31.96875 -5.5546875 C-20.3178984 -7.68194973 -10.00341568 -6.47279838 0 0 Z " fill="#262261" transform="translate(500.1875,48.0625)"/>
<path d="M0 0 C3.96 0 7.92 0 12 0 C12.33 5.94 12.66 11.88 13 18 C15.31 17.01 17.62 16.02 20 15 C28.06984864 13.97977996 36.22050374 14.12032419 43 19 C48.90904677 24.39699765 52.4583869 29.18819522 53.37109375 37.296875 C53.54826538 46.50979972 52.40060022 53.14759277 46.09765625 60.09765625 C39.1309599 66.60971214 32.71648471 67.37831358 23.37109375 67.26953125 C19.23459264 66.93880289 16.57355918 66.04203382 13 64 C12.505 64.99 12.505 64.99 12 66 C8.04 66 4.08 66 0 66 C0 44.22 0 22.44 0 0 Z M18 29 C13.50516283 33.98076551 12.70016942 36.96447163 12.78515625 43.52734375 C13.17381189 48.00041681 15.15668585 50.13259116 18.1875 53.25 C21.79827906 55.49670697 24.75992051 56.20031872 29 56 C34.15386107 54.28204631 36.98702755 51.47641621 40 47 C41.45790311 42.07957699 41.06140134 38.4822486 39.0703125 33.86328125 C36.92153787 30.12253126 34.17211069 27.69802359 30.04296875 26.37109375 C25.14794624 25.48194052 22.05289592 26.23666187 18 29 Z " fill="#262261" transform="translate(564,44)"/>
<path d="M0 0 C6.81161391 3.9546456 11.62628396 9.31362885 13.76953125 17.02734375 C13.76953125 20.65734375 13.76953125 24.28734375 13.76953125 28.02734375 C0.89953125 28.02734375 -11.97046875 28.02734375 -25.23046875 28.02734375 C-24.12654114 34.75153759 -24.12654114 34.75153759 -21.16796875 36.40234375 C-13.87227904 37.95461816 -8.94092395 38.8019748 -2.23046875 35.02734375 C-1.73546875 34.03734375 -1.73546875 34.03734375 -1.23046875 33.02734375 C3.38953125 33.02734375 8.00953125 33.02734375 12.76953125 33.02734375 C9.48949436 40.63702934 5.73408932 44.6000633 -1.29296875 48.90234375 C-7.75926141 51.31992164 -15.61782733 51.11548876 -22.1484375 49.1484375 C-29.20347163 45.91443547 -34.98039242 40.64878284 -37.75390625 33.23046875 C-39.54799386 24.93648995 -39.20823693 16.63134741 -34.921875 9.21875 C-26.62060865 -1.53647037 -12.67653306 -5.79117405 0 0 Z M-22.23046875 13.02734375 C-23.22046875 15.00734375 -24.21046875 16.98734375 -25.23046875 19.02734375 C-16.65046875 19.02734375 -8.07046875 19.02734375 0.76953125 19.02734375 C-0.2507883 14.94606553 -1.15251649 13.60052544 -4.4296875 11.08203125 C-10.40998522 7.57947076 -17.00252199 8.58764617 -22.23046875 13.02734375 Z " fill="#262261" transform="translate(659.23046875,60.97265625)"/>
<path d="M0 0 C4.29 0 8.58 0 13 0 C18.445 15.345 18.445 15.345 24 31 C25.97302654 28.04046018 27.09058858 25.40617514 28.34765625 22.08984375 C28.78787109 20.93548828 29.22808594 19.78113281 29.68164062 18.59179688 C30.13732422 17.38587891 30.59300781 16.17996094 31.0625 14.9375 C31.96923979 12.55047253 32.87675226 10.16373839 33.78515625 7.77734375 C34.38662476 6.18780884 34.38662476 6.18780884 35.00024414 4.56616211 C36 2 36 2 37 0 C41.29 0 45.58 0 50 0 C48.091203 6.6699 45.89986677 13.03209544 43.19921875 19.41796875 C42.84036087 20.27828201 42.48150299 21.13859528 42.11177063 22.02497864 C40.97501538 24.74780007 39.83157495 27.46774717 38.6875 30.1875 C37.18956662 33.76355449 35.69428376 37.34071428 34.19921875 40.91796875 C33.83923798 41.7779245 33.4792572 42.63788025 33.10836792 43.52389526 C29.99122797 50.98423892 26.97038699 58.48006027 24 66 C19.71 66 15.42 66 11 66 C11.92272373 61.38638133 13.27493547 57.98436055 15.2578125 53.79296875 C17.11233194 46.8141193 14.14755913 40.02248637 11.62109375 33.57421875 C11.28956802 32.70481155 10.9580423 31.83540436 10.61647034 30.93965149 C9.5651994 28.18563149 8.50226944 25.43632634 7.4375 22.6875 C6.37057533 19.92032186 5.30628626 17.15221443 4.24781799 14.38179016 C3.59091333 12.66361558 2.92892406 10.94737451 2.26133728 9.23332214 C1.96425369 8.45854019 1.6671701 7.68375824 1.36108398 6.88549805 C1.0976268 6.20569382 0.83416962 5.52588959 0.56272888 4.82548523 C0 3 0 3 0 0 Z " fill="#262261" transform="translate(511,60)"/>
<path d="M0 0 C35.81146026 0 35.81146026 0 44.984375 8.67578125 C52.75488457 17.63596186 53.6990364 27.65374118 53.17041016 39.01269531 C52.39289 48.08005074 47.74386694 55.12355073 41 61 C28.30822828 69.30023476 16.09610641 66 0 66 C0 44.22 0 22.44 0 0 Z M7 6 C7 23.82 7 41.64 7 60 C25.51572793 60.73916517 25.51572793 60.73916517 40.3046875 52.13671875 C46.07294895 44.86658278 46.98332574 35.97284741 46 27 C44.73937122 19.86394064 41.33258665 14.84262677 36 10 C27.0665086 4.34819932 17.47516305 6 7 6 Z " fill="#262261" transform="translate(201,44)"/>
<path d="M0 0 C6.61313613 4.05969095 11.52265253 9.76062186 13.375 17.3125 C13.375 20.2825 13.375 23.2525 13.375 26.3125 C-1.475 26.3125 -16.325 26.3125 -31.625 26.3125 C-27.52831462 37.02346771 -27.52831462 37.02346771 -18.875 42.6875 C-12.88445017 43.83952881 -7.63623283 43.33640035 -2.1875 40.5625 C0.51181939 38.49034172 0.51181939 38.49034172 1.6875 35.5625 C3.375 33.3125 3.375 33.3125 5.5546875 32.99609375 C7.84826719 32.9996663 10.09217513 33.09713916 12.375 33.3125 C9.26653932 40.69509411 5.12914866 46.35758368 -2.484375 49.48828125 C-9.50751903 51.3314198 -18.05938467 51.52982515 -24.78515625 48.47265625 C-32.06863265 43.87989088 -36.60927754 37.66697235 -38.625 29.3125 C-39.72608484 21.07334792 -38.14558615 13.22955067 -33.0625 6.5625 C-24.68095451 -2.20745857 -11.24829262 -5.19807462 0 0 Z M-28.49609375 12.30078125 C-30.05792035 14.817362 -30.05792035 14.817362 -30.625 20.3125 C-18.745 20.3125 -6.865 20.3125 5.375 20.3125 C4.30553396 13.89570377 3.16402521 11.40851293 -1.625 7.3125 C-11.4470238 1.7668643 -21.32665553 3.92015729 -28.49609375 12.30078125 Z " fill="#262261" transform="translate(337.625,60.6875)"/>
<path d="M0 0 C4.40790557 3.07867335 8.36981813 6.84674131 9.6953125 12.15625 C9.85 13.26806641 9.85 13.26806641 10.0078125 14.40234375 C6.92808279 14.83458652 4.98083767 15.10249379 2.0078125 14.40234375 C-0.04512507 12.53293283 -1.63918538 10.49941386 -3.35546875 8.3203125 C-5.70714028 5.56453512 -7.4141983 4.89344031 -10.9921875 4.40234375 C-17.31069612 4.35063746 -22.15604698 5.02678804 -26.9921875 9.40234375 C-30.66913432 14.47056774 -32.25557254 19.10217355 -31.9921875 25.40234375 C-30.89325941 31.37351056 -28.88818366 35.61907399 -23.9921875 39.40234375 C-18.21225692 42.80230291 -13.36821256 42.94900329 -6.9921875 41.40234375 C-3.28366485 39.51436858 -1.47721963 38.41860155 0.3203125 34.65234375 C2.0078125 32.40234375 2.0078125 32.40234375 4.1875 32.0859375 C6.48107969 32.08951005 8.72498763 32.18698291 11.0078125 32.40234375 C7.89970378 39.78410196 3.76309319 45.44428699 -3.84765625 48.578125 C-10.41523837 50.29956578 -17.28294937 50.15737733 -23.8046875 48.33984375 C-30.75331037 44.11617102 -36.52872249 39.3806111 -38.9921875 31.40234375 C-40.59111268 24.00731478 -40.38201817 17.24825586 -36.9921875 10.40234375 C-28.59809936 -2.10032617 -13.99008798 -7.2531637 0 0 Z " fill="#262261" transform="translate(394.9921875,61.59765625)"/>
<path d="M0 0 C0 3.63 0 7.26 0 11 C-3.41796875 12.41601562 -3.41796875 12.41601562 -6.8359375 13.83203125 C-9.30147458 14.94439082 -9.30147458 14.94439082 -11 18 C-11.23993655 20.53586848 -11.37253219 22.97216031 -11.4140625 25.51171875 C-11.43342865 26.23994339 -11.4527948 26.96816803 -11.4727478 27.71846008 C-11.53246376 30.04135475 -11.57889617 32.36429919 -11.625 34.6875 C-11.66318721 36.26369332 -11.70223938 37.83986595 -11.7421875 39.41601562 C-11.83815848 43.27717535 -11.92221849 47.13843276 -12 51 C-16.29 51 -20.58 51 -25 51 C-25 34.5 -25 18 -25 1 C-21.04 1 -17.08 1 -13 1 C-12.67 1.99 -12.34 2.98 -12 4 C-10.700625 3.01 -10.700625 3.01 -9.375 2 C-5.78576537 -0.12695385 -4.07305202 -0.38790972 0 0 Z " fill="#262261" transform="translate(705,59)"/>
<path d="M0 0 C2.31 0 4.62 0 7 0 C7 5.28 7 10.56 7 16 C10.3 16 13.6 16 17 16 C17 17.98 17 19.96 17 22 C13.7 22 10.4 22 7 22 C7 36.52 7 51.04 7 66 C4.69 66 2.38 66 0 66 C0 51.48 0 36.96 0 22 C-2.97 22 -5.94 22 -9 22 C-9 20.02 -9 18.04 -9 16 C-6.03 16 -3.06 16 0 16 C0 10.72 0 5.44 0 0 Z " fill="#262261" transform="translate(418,44)"/>
<path d="M0 0 C2.625 0.375 2.625 0.375 5 1 C5 2.98 5 4.96 5 7 C2.625 7.625 2.625 7.625 0 8 C-0.66 7.34 -1.32 6.68 -2 6 C-4.57061311 5.35232207 -4.57061311 5.35232207 -7 5 C-6.87625 6.27875 -6.7525 7.5575 -6.625 8.875 C-6.55539063 9.59429687 -6.48578125 10.31359375 -6.4140625 11.0546875 C-6.13625251 13.22668245 -6.13625251 13.22668245 -4 15 C-1.13617279 15.28162436 -1.13617279 15.28162436 2.0625 15.1875 C3.14660156 15.18105469 4.23070313 15.17460938 5.34765625 15.16796875 C7.92202315 15.29831107 7.92202315 15.29831107 9 14 C11.5 13.875 11.5 13.875 14 14 C15 15 15 15 15.125 17.5 C15 20 15 20 14 21 C12.33382885 21.04063832 10.66611905 21.042721 9 21 C8.505 19.515 8.505 19.515 8 18 C5.8537974 18.14029419 3.70803782 18.28738164 1.5625 18.4375 C0.36753906 18.51871094 -0.82742187 18.59992188 -2.05859375 18.68359375 C-4.88570244 18.67656114 -4.88570244 18.67656114 -6 20 C-8.5 20.125 -8.5 20.125 -11 20 C-11.33 19.67 -11.66 19.34 -12 19 C-14.52793394 18.76328017 -17.02934966 18.5785675 -19.5625 18.4375 C-22.016875 18.293125 -24.47125 18.14875 -27 18 C-27 13.05 -27 8.1 -27 3 C-25.21851563 2.95101562 -23.43703125 2.90203125 -21.6015625 2.8515625 C-19.27602537 2.77654517 -16.95050532 2.70099691 -14.625 2.625 C-13.449375 2.5940625 -12.27375 2.563125 -11.0625 2.53125 C-9.94101562 2.49257812 -8.81953125 2.45390625 -7.6640625 2.4140625 C-6.62717285 2.3826416 -5.5902832 2.3512207 -4.52197266 2.31884766 C-1.83190165 2.24045528 -1.83190165 2.24045528 0 0 Z " fill="#D4D8E5" transform="translate(37,83)"/>
<path d="M0 0 C0 2.31 0 4.62 0 7 C-0.55429687 7.24234375 -1.10859375 7.4846875 -1.6796875 7.734375 C-2.40414063 8.06953125 -3.12859375 8.4046875 -3.875 8.75 C-4.59429687 9.07484375 -5.31359375 9.3996875 -6.0546875 9.734375 C-8.52001763 11.33832472 -8.97271871 12.23099988 -10 15 C-10.23618702 17.78433032 -10.37207848 20.4785743 -10.4140625 23.265625 C-10.43342865 24.05902283 -10.4527948 24.85242065 -10.4727478 25.66986084 C-10.53238361 28.19646557 -10.57886443 30.72311625 -10.625 33.25 C-10.66319455 34.96616537 -10.70224715 36.68231187 -10.7421875 38.3984375 C-10.83807186 42.59880456 -10.92216167 46.79926134 -11 51 C-13.31 51 -15.62 51 -18 51 C-18 34.5 -18 18 -18 1 C-16.02 1 -14.04 1 -12 1 C-11.67 1.99 -11.34 2.98 -11 4 C-10.113125 3.34 -9.22625 2.68 -8.3125 2 C-5.01888014 0.01139933 -3.71748127 -0.43735074 0 0 Z " fill="#262261" transform="translate(297,59)"/>
<path d="M0 0 C2.31 0 4.62 0 7 0 C7 16.5 7 33 7 50 C4.69 50 2.38 50 0 50 C0 33.5 0 17 0 0 Z " fill="#262261" transform="translate(262,60)"/>
<path d="M0 0 C1.67542976 0.28604898 3.34385343 0.61781233 5 1 C5.625 3.375 5.625 3.375 6 6 C5.34 6.66 4.68 7.32 4 8 C3.69400937 10.56916657 3.48912913 13.04758384 3.375 15.625 C3.33632813 16.33140625 3.29765625 17.0378125 3.2578125 17.765625 C3.16352276 19.50998524 3.08067109 21.25495691 3 23 C4.64630328 22.85957123 6.29204179 22.71250671 7.9375 22.5625 C8.85402344 22.48128906 9.77054688 22.40007812 10.71484375 22.31640625 C12.96159732 22.23955024 12.96159732 22.23955024 14 21 C16.5 20.875 16.5 20.875 19 21 C20 22 20 22 20.125 24.5 C20 27 20 27 19 28 C17.33382885 28.04063832 15.66611905 28.042721 14 28 C13.505 26.515 13.505 26.515 13 25 C-7.13 25 -27.26 25 -48 25 C-48 24.34 -48 23.68 -48 23 C-31.83 23 -15.66 23 1 23 C1 17.72 1 12.44 1 7 C0.34 7 -0.32 7 -1 7 C-1.04254356 5.00045254 -1.04080783 2.99958364 -1 1 C-0.67 0.67 -0.34 0.34 0 0 Z " fill="#E8ECF2" transform="translate(59,83)"/>
<path d="M0 0 C1.74216797 0.05414063 1.74216797 0.05414063 3.51953125 0.109375 C4.39996094 0.15578125 5.28039062 0.2021875 6.1875 0.25 C6.26865993 3.31303578 6.32807409 6.37390815 6.375 9.4375 C6.40013672 10.30181641 6.42527344 11.16613281 6.45117188 12.05664062 C6.5072835 16.93835222 6.44240183 20.317322 3.1875 24.25 C-0.00536823 25.84643412 -3.34670693 25.76370451 -6.8125 25.25 C-9.3125 23.375 -9.3125 23.375 -10.8125 21.25 C-10.8125 20.59 -10.8125 19.93 -10.8125 19.25 C-7.94525314 19.82344937 -6.9510485 20.1114515 -4.8125 22.25 C-2.20969432 21.92958603 -2.20969432 21.92958603 0.1875 21.25 C0.5175 20.26 0.8475 19.27 1.1875 18.25 C-0.029375 18.353125 -1.24625 18.45625 -2.5 18.5625 C-5.91609162 18.53822937 -6.79077348 18.26403171 -9.8125 16.3125 C-12.14140059 12.74637097 -12.40448155 10.59266442 -12.4765625 6.43359375 C-10.63506256 0.37830864 -5.58653127 -0.22571844 0 0 Z M-7 3.875 C-9.03816095 6.16179913 -9.03816095 6.16179913 -9.3125 9.25 C-9.01980025 12.32061639 -9.01980025 12.32061639 -7.125 14.6875 C-4.92352813 16.50051858 -4.92352813 16.50051858 -2.25 16.1875 C1.06827295 14.94216004 1.06827295 14.94216004 3.1875 12.25 C3.11885738 8.4060133 3.03764741 6.12848566 0.3125 3.3125 C-2.8098473 1.75132635 -4.188661 1.78657674 -7 3.875 Z " fill="#58595B" transform="translate(563.8125,134.75)"/>
<path d="M0 0 C2.5625 0.1875 2.5625 0.1875 4.5625 2.1875 C4.02678571 5.72321429 4.02678571 5.72321429 2.5625 7.1875 C0.89632885 7.22813832 -0.77138095 7.230221 -2.4375 7.1875 C-2.9325 6.1975 -2.9325 6.1975 -3.4375 5.1875 C-5.96483235 4.53194881 -5.96483235 4.53194881 -8.4375 4.1875 C-8.31375 5.46625 -8.19 6.745 -8.0625 8.0625 C-7.95808594 9.14144531 -7.95808594 9.14144531 -7.8515625 10.2421875 C-7.57375251 12.41418245 -7.57375251 12.41418245 -5.4375 14.1875 C-5.8125 16.8125 -5.8125 16.8125 -6.4375 19.1875 C-8.8125 19.8125 -8.8125 19.8125 -11.4375 20.1875 C-12.0975 19.5275 -12.7575 18.8675 -13.4375 18.1875 C-12.88194444 13.63194444 -12.88194444 13.63194444 -11.4375 12.1875 C-11.1075 9.5475 -10.7775 6.9075 -10.4375 4.1875 C-22.9775 4.1875 -35.5175 4.1875 -48.4375 4.1875 C-48.4375 3.5275 -48.4375 2.8675 -48.4375 2.1875 C-47.87595718 2.17719254 -47.31441437 2.16688507 -46.7358551 2.15626526 C-40.91256534 2.04842315 -35.08943736 1.93380792 -29.26635742 1.81518555 C-27.09061047 1.77176493 -24.91482786 1.73009529 -22.73901367 1.69018555 C-19.61886832 1.63265498 -16.49890367 1.56891177 -13.37890625 1.50390625 C-12.39974747 1.48719376 -11.42058868 1.47048126 -10.41175842 1.45326233 C-9.51090012 1.43331711 -8.61004181 1.41337189 -7.68188477 1.39282227 C-6.48608543 1.36950584 -6.48608543 1.36950584 -5.26612854 1.34571838 C-2.84535311 1.13626569 -2.61138302 0.20087562 0 0 Z " fill="#EDEEF4" transform="translate(60.4375,109.8125)"/>
<path d="M0 0 C2.625 0.9375 2.625 0.9375 5 2 C4.67 3.65 4.34 5.3 4 7 C3.01 7.33 2.02 7.66 1 8 C1 13.28 1 18.56 1 24 C2.60875 23.87625 4.2175 23.7525 5.875 23.625 C7.23238281 23.52058594 7.23238281 23.52058594 8.6171875 23.4140625 C11.17941903 23.20431868 11.17941903 23.20431868 13 21 C15.625 21.375 15.625 21.375 18 22 C18.625 24.375 18.625 24.375 19 27 C18.34 27.66 17.68 28.32 17 29 C12.44444444 28.44444444 12.44444444 28.44444444 11 27 C8.19023482 26.83982834 5.40226404 26.74049466 2.58984375 26.68359375 C1.74780899 26.66281265 0.90577423 26.64203156 0.03822327 26.62062073 C-2.66193179 26.55503188 -5.36218717 26.49619724 -8.0625 26.4375 C-9.88868241 26.39432363 -11.71485454 26.35070964 -13.54101562 26.30664062 C-18.02723992 26.19934106 -22.5135655 26.09810034 -27 26 C-27 25.34 -27 24.68 -27 24 C-18.09 24 -9.18 24 0 24 C-0.12375 21.40125 -0.2475 18.8025 -0.375 16.125 C-0.40899902 15.30789551 -0.44299805 14.49079102 -0.47802734 13.64892578 C-0.58495779 9.36288412 -0.58495779 9.36288412 -3 6 C-2.75 3.4375 -2.75 3.4375 -2 1 C-1.34 0.67 -0.68 0.34 0 0 Z " fill="#FFFFFF" transform="translate(38,56)"/>
<path d="M0 0 C0.33 0.66 0.66 1.32 1 2 C6.61 2 12.22 2 18 2 C18 10 18 10 16.98046875 11.98828125 C13.86246602 13.5811071 10.72234453 13.31166801 7.3125 13.1875 C6.2596582 13.16719727 6.2596582 13.16719727 5.18554688 13.14648438 C3.45670171 13.11120182 1.72825235 13.05739583 0 13 C0 8.71 0 4.42 0 0 Z " fill="#233879" transform="translate(10,86)"/>
<path d="M0 0 C15.84 0 31.68 0 48 0 C47.34 1.32 46.68 2.64 46 4 C31.15 4 16.3 4 1 4 C0.67 2.68 0.34 1.36 0 0 Z " fill="#223879" transform="translate(11,108)"/>
<path d="M0 0 C2.47923801 -0.02685095 4.9581884 -0.04676547 7.4375 -0.0625 C8.14455078 -0.07087891 8.85160156 -0.07925781 9.58007812 -0.08789062 C11.38693559 -0.09653588 13.19387603 -0.05220011 15 0 C15.33 0.33 15.66 0.66 16 1 C18.5 1.16666667 18.5 1.16666667 21 1 C21.33 0.67 21.66 0.34 22 0 C24.11884707 -0.20429655 26.2472027 -0.31393738 28.375 -0.375 C29.53773437 -0.42398438 30.70046875 -0.47296875 31.8984375 -0.5234375 C32.92195313 -0.35070312 33.94546875 -0.17796875 35 0 C35.99 1.65 36.98 3.3 38 5 C25.79 5 13.58 5 1 5 C0.67 3.35 0.34 1.7 0 0 Z " fill="#253B7B" transform="translate(10,101)"/>
<path d="M0 0 C3 2.25 3 2.25 5 5 C5 6.32 5 7.64 5 9 C0.05 9 -4.9 9 -10 9 C-9.34 10.65 -8.68 12.3 -8 14 C-4.70111637 15.21537818 -2.30816138 15.10272046 1 14 C1 13.34 1 12.68 1 12 C2.32 12.33 3.64 12.66 5 13 C1.24248497 17.69689379 1.24248497 17.69689379 -1.9375 18.47265625 C-5.61758499 18.63296298 -7.67130586 18.1818308 -10.9375 16.375 C-13.46366448 13.46608332 -13.92177859 11.83284932 -14 8 C-13.25137024 5.07353822 -12.38501251 3.42943703 -10.375 1.1875 C-6.92828198 -0.53585901 -3.71985071 -0.79553243 0 0 Z M-8.375 3.3125 C-10.2312139 4.84965539 -10.2312139 4.84965539 -10 7 C-6.04 7 -2.08 7 2 7 C1.34 5.68 0.68 4.36 0 3 C-3.46475781 1.87018767 -5.1416079 1.52562542 -8.375 3.3125 Z " fill="#58595B" transform="translate(646,135)"/>
<path d="M0 0 C3 2.25 3 2.25 5 5 C5 6.32 5 7.64 5 9 C0.05 9 -4.9 9 -10 9 C-9.34 10.65 -8.68 12.3 -8 14 C-4.70111637 15.21537818 -2.30816138 15.10272046 1 14 C1 13.34 1 12.68 1 12 C2.32 12.33 3.64 12.66 5 13 C1.24248497 17.69689379 1.24248497 17.69689379 -1.9375 18.47265625 C-5.61758499 18.63296298 -7.67130586 18.1818308 -10.9375 16.375 C-13.46366448 13.46608332 -13.92177859 11.83284932 -14 8 C-13.25137024 5.07353822 -12.38501251 3.42943703 -10.375 1.1875 C-6.92828198 -0.53585901 -3.71985071 -0.79553243 0 0 Z M-8.375 3.3125 C-10.2312139 4.84965539 -10.2312139 4.84965539 -10 7 C-6.04 7 -2.08 7 2 7 C1.34 5.68 0.68 4.36 0 3 C-3.46475781 1.87018767 -5.1416079 1.52562542 -8.375 3.3125 Z " fill="#58595B" transform="translate(252,135)"/>
<path d="M0 0 C0.99 0 1.98 0 3 0 C3.33 1.65 3.66 3.3 4 5 C6.97851562 4.90234375 6.97851562 4.90234375 9.95703125 4.8046875 C12 5 12 5 15 7 C16.14077657 10.42232972 16.09815117 13.08673217 16.0625 16.6875 C16.05347656 17.86699219 16.04445313 19.04648438 16.03515625 20.26171875 C16.02355469 21.16535156 16.01195312 22.06898438 16 23 C15.01 23 14.02 23 13 23 C12.95101563 22.16855469 12.90203125 21.33710938 12.8515625 20.48046875 C12.77679688 19.39378906 12.70203125 18.30710938 12.625 17.1875 C12.55539062 16.10855469 12.48578125 15.02960938 12.4140625 13.91796875 C12.18804267 10.81373814 12.18804267 10.81373814 10 8 C8.35 8.33 6.7 8.66 5 9 C3.99740493 12.00778521 3.69685358 14.53820647 3.4375 17.6875 C3.35371094 18.68136719 3.26992188 19.67523438 3.18359375 20.69921875 C3.12300781 21.45847656 3.06242187 22.21773437 3 23 C2.01 23 1.02 23 0 23 C0 15.41 0 7.82 0 0 Z " fill="#58595B" transform="translate(333,130)"/>
<path d="M0 0 C2.9838283 1.98921886 4.60276841 3.38502568 5.4765625 6.9375 C5.75890933 10.86063492 5.21925086 12.67112371 3 16 C-0.33228304 18.22152203 -2.14088392 18.7480039 -6.06640625 18.48828125 C-9.45966968 17.63139654 -10.98413808 15.74890261 -13 13 C-14.42001879 9.5387042 -14.12942622 8.33003686 -12.75 4.8125 C-9.59337248 -0.26065137 -5.65038927 -1.04433265 0 0 Z M-8.3125 3.5625 C-10.47532132 6.68657525 -10.62161854 8.27028877 -10 12 C-8.45714369 14.54331238 -8.45714369 14.54331238 -6 16 C-3.13788059 15.93019221 -1.57004712 15.37347914 0.8125 13.8125 C2.58260835 11.11075568 2.39415803 9.15326426 2 6 C0.44107407 3.62058674 -0.78349928 3.08326951 -3.4375 2.0625 C-6.11102813 1.74948142 -6.11102813 1.74948142 -8.3125 3.5625 Z " fill="#58595B" transform="translate(518,135)"/>
<path d="M0 0 C2.9838283 1.98921886 4.60276841 3.38502568 5.4765625 6.9375 C5.75890933 10.86063492 5.21925086 12.67112371 3 16 C-0.33228304 18.22152203 -2.14088392 18.7480039 -6.06640625 18.48828125 C-9.45966968 17.63139654 -10.98413808 15.74890261 -13 13 C-14.42001879 9.5387042 -14.12942622 8.33003686 -12.75 4.8125 C-9.59337248 -0.26065137 -5.65038927 -1.04433265 0 0 Z M-8.3125 3.5625 C-10.47532132 6.68657525 -10.62161854 8.27028877 -10 12 C-8.45714369 14.54331238 -8.45714369 14.54331238 -6 16 C-3.13788059 15.93019221 -1.57004712 15.37347914 0.8125 13.8125 C2.58260835 11.11075568 2.39415803 9.15326426 2 6 C0.44107407 3.62058674 -0.78349928 3.08326951 -3.4375 2.0625 C-6.11102813 1.74948142 -6.11102813 1.74948142 -8.3125 3.5625 Z " fill="#58595B" transform="translate(437,135)"/>
<path d="M0 0 C4.62 0 9.24 0 14 0 C14.36618557 7.4457732 14.36618557 7.4457732 12.84375 9.75 C9.13932061 12.26147756 4.2876856 11.15133008 0 11 C0 7.37 0 3.74 0 0 Z " fill="#2F3D7A" transform="translate(80,130)"/>
<path d="M0 0 C11.25611746 -0.48939641 11.25611746 -0.48939641 14.375 1.5625 C16.60751644 4.91127466 16.39761062 7.26451318 16.25 11.25 C16.21390625 12.51328125 16.1778125 13.7765625 16.140625 15.078125 C16.07101562 16.52445313 16.07101562 16.52445313 16 18 C15.01 18 14.02 18 13 18 C12.95101563 17.16855469 12.90203125 16.33710938 12.8515625 15.48046875 C12.77679688 14.39378906 12.70203125 13.30710938 12.625 12.1875 C12.55539062 11.10855469 12.48578125 10.02960938 12.4140625 8.91796875 C12.18804267 5.81373814 12.18804267 5.81373814 10 3 C8.35 3.33 6.7 3.66 5 4 C3.99740493 7.00778521 3.69685358 9.53820647 3.4375 12.6875 C3.31181641 14.17830078 3.31181641 14.17830078 3.18359375 15.69921875 C3.12300781 16.45847656 3.06242187 17.21773437 3 18 C2.01 18 1.02 18 0 18 C0 12.06 0 6.12 0 0 Z " fill="#58595B" transform="translate(379,135)"/>
<path d="M0 0 C2.5 1.875 2.5 1.875 4 4 C4 4.66 4 5.32 4 6 C1.03824877 5.38722388 -0.38058783 4.74627478 -3 3 C-5.61915122 3.15701426 -5.61915122 3.15701426 -8 4 C-9.39935013 6.79870027 -9.25265405 8.90498792 -9 12 C-8.01951062 14.06402685 -8.01951062 14.06402685 -6 15 C-3.05908413 14.81584568 -3.05908413 14.81584568 0 14 C0.94875 13.814375 1.8975 13.62875 2.875 13.4375 C3.926875 13.2209375 3.926875 13.2209375 5 13 C1.26530612 17.66836735 1.26530612 17.66836735 -1.9375 18.5078125 C-5.86168332 18.73077746 -7.66655006 18.22229996 -11 16 C-13.21925086 12.67112371 -13.75890933 10.86063492 -13.4765625 6.9375 C-11.70799246 -0.25275195 -6.22756006 -0.88965144 0 0 Z " fill="#58595B" transform="translate(299,135)"/>
<path d="M0 0 C1.134375 0.020625 2.26875 0.04125 3.4375 0.0625 C4.0975 1.7125 4.7575 3.3625 5.4375 5.0625 C2.77083333 4.39583333 0.10416667 3.72916667 -2.5625 3.0625 C-1.84610801 6.35093538 -1.84610801 6.35093538 1.4375 7.6875 C2.4275 8.14125 3.4175 8.595 4.4375 9.0625 C5.4375 10.0625 5.4375 10.0625 5.625 13 C5.4375 16.0625 5.4375 16.0625 3.4375 18.0625 C0 18.4375 0 18.4375 -3.5625 18.0625 C-5.5 16.1875 -5.5 16.1875 -6.5625 14.0625 C-6.5625 13.4025 -6.5625 12.7425 -6.5625 12.0625 C-5.2425 12.3925 -3.9225 12.7225 -2.5625 13.0625 C-2.5625 13.7225 -2.5625 14.3825 -2.5625 15.0625 C-0.9125 15.0625 0.7375 15.0625 2.4375 15.0625 C2.4375 13.7425 2.4375 12.4225 2.4375 11.0625 C1.48875 10.77375 0.54 10.485 -0.4375 10.1875 C-3.5625 9.0625 -3.5625 9.0625 -5.5625 7.0625 C-4.85052009 0.08509684 -4.85052009 0.08509684 0 0 Z " fill="#58595B" transform="translate(685.5625,134.9375)"/>
<path d="M0 0 C2.475 0.495 2.475 0.495 5 1 C5.625 3.375 5.625 3.375 6 6 C5.34 6.66 4.68 7.32 4 8 C0.41411676 7.61233695 -2.69987921 6.41433748 -6 5 C-6 7.64 -6 10.28 -6 13 C-6.33 13 -6.66 13 -7 13 C-7.33 10.36 -7.66 7.72 -8 5 C-12.29 5 -16.58 5 -21 5 C-21 4.34 -21 3.68 -21 3 C-14.4 3 -7.8 3 -1 3 C-0.67 2.01 -0.34 1.02 0 0 Z " fill="#C1C6D8" transform="translate(102,125)"/>
<path d="M0 0 C2.5625 0.1875 2.5625 0.1875 4.5625 2.1875 C4.02678571 5.72321429 4.02678571 5.72321429 2.5625 7.1875 C0.89632885 7.22813832 -0.77138095 7.230221 -2.4375 7.1875 C-2.9325 5.2075 -2.9325 5.2075 -3.4375 3.1875 C-18.2875 3.5175 -33.1375 3.8475 -48.4375 4.1875 C-48.4375 3.5275 -48.4375 2.8675 -48.4375 2.1875 C-47.87595718 2.17719254 -47.31441437 2.16688507 -46.7358551 2.15626526 C-40.91256534 2.04842315 -35.08943736 1.93380792 -29.26635742 1.81518555 C-27.09061047 1.77176493 -24.91482786 1.73009529 -22.73901367 1.69018555 C-19.61886832 1.63265498 -16.49890367 1.56891177 -13.37890625 1.50390625 C-12.39974747 1.48719376 -11.42058868 1.47048126 -10.41175842 1.45326233 C-9.51090012 1.43331711 -8.61004181 1.41337189 -7.68188477 1.39282227 C-6.48608543 1.36950584 -6.48608543 1.36950584 -5.26612854 1.34571838 C-2.84535311 1.13626569 -2.61138302 0.20087562 0 0 Z " fill="#C2C7D9" transform="translate(60.4375,109.8125)"/>
<path d="M0 0 C1.32 0 2.64 0 4 0 C4 7.59 4 15.18 4 23 C2.68 23 1.36 23 0 23 C0 15.41 0 7.82 0 0 Z " fill="#58595B" transform="translate(472,130)"/>
<path d="M0 0 C2.475 0.495 2.475 0.495 5 1 C5.625 3.375 5.625 3.375 6 6 C5.34 6.66 4.68 7.32 4 8 C-0.55555556 7.44444444 -0.55555556 7.44444444 -2 6 C-4.80976518 5.83982834 -7.59773596 5.74049466 -10.41015625 5.68359375 C-11.25219101 5.66281265 -12.09422577 5.64203156 -12.96177673 5.62062073 C-15.66193179 5.55503188 -18.36218717 5.49619724 -21.0625 5.4375 C-22.88868241 5.39432363 -24.71485454 5.35070964 -26.54101562 5.30664062 C-31.02723992 5.19934106 -35.5135655 5.09810034 -40 5 C-39.67 4.34 -39.34 3.68 -39 3 C-20.685 3.495 -20.685 3.495 -2 4 C-1.34 2.68 -0.68 1.36 0 0 Z " fill="#C3CDDF" transform="translate(51,77)"/>
<path d="M0 0 C3.96 0 7.92 0 12 0 C12 0.66 12 1.32 12 2 C10.35 2 8.7 2 7 2 C7 8.93 7 15.86 7 23 C6.01 23 5.02 23 4 23 C4 16.07 4 9.14 4 2 C2.68 2 1.36 2 0 2 C0 1.34 0 0.68 0 0 Z " fill="#58595B" transform="translate(200,130)"/>
<path d="M0 0 C8.58 0 17.16 0 26 0 C26 0.33 26 0.66 26 1 C24.7934375 1.185625 24.7934375 1.185625 23.5625 1.375 C22.716875 1.58125 21.87125 1.7875 21 2 C20.67 2.66 20.34 3.32 20 4 C13.4 4 6.8 4 0 4 C0 2.68 0 1.36 0 0 Z " fill="#233A7B" transform="translate(81,124)"/>
<path d="M0 0 C3.875 0.875 3.875 0.875 5 2 C5.04063832 3.66617115 5.042721 5.33388095 5 7 C2.625 7.625 2.625 7.625 0 8 C-0.66 7.34 -1.32 6.68 -2 6 C-4.57579385 5.75470419 -7.05229007 5.62658207 -9.6328125 5.5859375 C-10.38464813 5.56657135 -11.13648376 5.5472052 -11.91110229 5.5272522 C-14.31561899 5.46740853 -16.72018344 5.42105274 -19.125 5.375 C-20.75392728 5.33682454 -22.38283428 5.29777307 -24.01171875 5.2578125 C-28.00764806 5.16170334 -32.00367187 5.07769059 -36 5 C-36 4.67 -36 4.34 -36 4 C-24.78 4 -13.56 4 -2 4 C-1.34 2.68 -0.68 1.36 0 0 Z " fill="#E2E5EE" transform="translate(117,119)"/>
<path d="M0 0 C1.32 0 2.64 0 4 0 C4 5.94 4 11.88 4 18 C2.68 18 1.36 18 0 18 C0 12.06 0 6.12 0 0 Z " fill="#58595B" transform="translate(600,135)"/>
<path d="M0 0 C2.625 0.375 2.625 0.375 5 1 C5.625 3.375 5.625 3.375 6 6 C5.34 6.66 4.68 7.32 4 8 C-0.55555556 7.44444444 -0.55555556 7.44444444 -2 6 C-3.51469448 5.76807135 -5.03754562 5.58784762 -6.5625 5.4375 C-7.38878906 5.35371094 -8.21507812 5.26992187 -9.06640625 5.18359375 C-9.70449219 5.12300781 -10.34257812 5.06242187 -11 5 C-11 4.34 -11 3.68 -11 3 C-10.37351562 2.95101562 -9.74703125 2.90203125 -9.1015625 2.8515625 C-8.28429687 2.77679688 -7.46703125 2.70203125 -6.625 2.625 C-5.81289063 2.55539063 -5.00078125 2.48578125 -4.1640625 2.4140625 C-1.79665809 2.17107412 -1.79665809 2.17107412 0 0 Z " fill="#E0E4ED" transform="translate(24,70)"/>
<path d="M0 0 C2.31 0 4.62 0 7 0 C7 3.3 7 6.6 7 10 C4.69 10 2.38 10 0 10 C0 6.7 0 3.4 0 0 Z " fill="#262261" transform="translate(262,44)"/>
<path d="M0 0 C2.5 0.125 2.5 0.125 3.5 1.125 C3.75 3.5625 3.75 3.5625 3.5 6.125 C2.51 6.785 1.52 7.445 0.5 8.125 C0.11588725 10.734621 -0.10293197 13.1308074 -0.1875 15.75 C-0.22166016 16.45640625 -0.25582031 17.1628125 -0.29101562 17.890625 C-0.37351308 19.63485688 -0.43843335 21.37990395 -0.5 23.125 C-0.83 23.125 -1.16 23.125 -1.5 23.125 C-1.56058594 21.98160156 -1.62117188 20.83820313 -1.68359375 19.66015625 C-1.76798428 18.16925695 -1.85263302 16.67837225 -1.9375 15.1875 C-1.97681641 14.43275391 -2.01613281 13.67800781 -2.05664062 12.90039062 C-1.94038024 9.20555813 -1.94038024 9.20555813 -3.5 6.125 C-3.625 3.625 -3.625 3.625 -3.5 1.125 C-2.5 0.125 -2.5 0.125 0 0 Z " fill="#DDE2EC" transform="translate(104.5,98.875)"/>
<path d="M0 0 C1.66611905 -0.042721 3.33382885 -0.04063832 5 0 C6 1 6 1 6.125 3.5 C6 6 6 6 5 7 C3.33382885 7.04063832 1.66611905 7.042721 0 7 C-0.33 6.01 -0.66 5.02 -1 4 C-4.96 4 -8.92 4 -13 4 C-13 3.67 -13 3.34 -13 3 C-9.04 3 -5.08 3 -1 3 C-0.67 2.01 -0.34 1.02 0 0 Z " fill="#F8F9FB" transform="translate(46,97)"/>
<path d="M0 0 C2.5 0.125 2.5 0.125 3.5 1.125 C3.625 3.625 3.625 3.625 3.5 6.125 C2.5 7.125 2.5 7.125 0.0625 7.375 C-0.783125 7.2925 -1.62875 7.21 -2.5 7.125 C-3.16 6.135 -3.82 5.145 -4.5 4.125 C-6.69454681 3.54506301 -6.69454681 3.54506301 -9.125 3.4375 C-9.94226563 3.37175781 -10.75953125 3.30601563 -11.6015625 3.23828125 C-12.22804687 3.20089844 -12.85453125 3.16351563 -13.5 3.125 C-13.5 2.795 -13.5 2.465 -13.5 2.125 C-12.78972656 2.06441406 -12.07945313 2.00382812 -11.34765625 1.94140625 C-9.96900391 1.81572266 -9.96900391 1.81572266 -8.5625 1.6875 C-7.64597656 1.60628906 -6.72945313 1.52507812 -5.78515625 1.44140625 C-3.05048215 1.06275907 -2.82602425 0.14130121 0 0 Z " fill="#EEF1F6" transform="translate(75.5,103.875)"/>
<path d="M0 0 C3.875 0.875 3.875 0.875 5 2 C5.125 4.5 5.125 4.5 5 7 C4 8 4 8 1.4375 8.0625 C0.633125 8.041875 -0.17125 8.02125 -1 8 C-1.33 7.01 -1.66 6.02 -2 5 C-4.31 5 -6.62 5 -9 5 C-9 4.67 -9 4.34 -9 4 C-6.69 4 -4.38 4 -2 4 C-1.34 2.68 -0.68 1.36 0 0 Z " fill="#EBEEF4" transform="translate(90,112)"/>
<path d="M0 0 C1.65 0.33 3.3 0.66 5 1 C5 2.98 5 4.96 5 7 C2.625 7.625 2.625 7.625 0 8 C-0.66 7.34 -1.32 6.68 -2 6 C-4.57061311 5.35232207 -4.57061311 5.35232207 -7 5 C-7 4.67 -7 4.34 -7 4 C-5.35 4 -3.7 4 -2 4 C-1.34 2.68 -0.68 1.36 0 0 Z " fill="#E7EBF2" transform="translate(37,83)"/>
<path d="M0 0 C2.625 0.9375 2.625 0.9375 5 2 C4.67 3.65 4.34 5.3 4 7 C1.625 7.625 1.625 7.625 -1 8 C-1.66 7.34 -2.32 6.68 -3 6 C-2.75 3.4375 -2.75 3.4375 -2 1 C-1.34 0.67 -0.68 0.34 0 0 Z " fill="#E9EEF5" transform="translate(38,56)"/>
<path d="M0 0 C1.67542976 0.28604898 3.34385343 0.61781233 5 1 C5.625 3.375 5.625 3.375 6 6 C5.34 6.66 4.68 7.32 4 8 C1.375 7.625 1.375 7.625 -1 7 C-1.04254356 5.00045254 -1.04080783 2.99958364 -1 1 C-0.67 0.67 -0.34 0.34 0 0 Z " fill="#EEEFF4" transform="translate(102,125)"/>
<path d="M0 0 C1.32 0 2.64 0 4 0 C4 1.32 4 2.64 4 4 C2.68 4 1.36 4 0 4 C0 2.68 0 1.36 0 0 Z " fill="#58595B" transform="translate(600,129)"/>
<path d="" fill="#58595B" transform="translate(0,0)"/>
<path d="" fill="#262261" transform="translate(0,0)"/>
</svg>
