<svg id="artwork" xmlns="http://www.w3.org/2000/svg" viewBox="0 0 800 600"><rect x="602.7" y="113.5" width="78.9" height="78.9" fill="#fbc3d4"/><rect x="681.6" y="34.6" width="78.9" height="78.9" fill="#0a65db"/><rect x="523.8" y="192.5" width="78.9" height="78.9" fill="#ff491e"/><rect x="681.6" y="192.5" width="78.9" height="78.9" fill="#000609"/><rect x="523.8" y="34.6" width="78.9" height="78.9" fill="#ffd00d"/><polygon points="353.7 597 353.7 461.5 494.1 461.5 353.7 597" fill="#0a65db"/><polygon points="494.1 461.5 494.1 326 633.4 326 494.1 461.5" fill="#ffd00d"/><polygon points="353.7 461.5 353.7 326 494.1 326 353.7 461.5" fill="#fbc3d4"/><circle cx="301.9" cy="165.5" r="67.1" fill="#ffd00d"/><circle cx="185.9" cy="232.4" r="67.1" fill="#ff491e"/><circle cx="185.9" cy="98.1" r="67.1" fill="#0a65db"/><circle cx="69.7" cy="165.3" r="67.1" fill="#fbc3d4"/><path d="M309.9,329.8H69V2H309.9ZM71,327.8H307.9V4H71Z" fill="#000609"/><path d="M580.5,528.9H252.7V288H580.5Zm-325.8-2H578.5V290H254.7Z" fill="#000609"/><path d="M796.6,378H468.8V137.1H796.6Zm-325.8-2H794.6V139.1H470.8Z" fill="#000609"/><polygon points="187.1 454.98 144.61 454.98 183.86 438.65 183.09 436.81 143.84 453.13 173.89 422.93 172.47 421.52 142.45 451.7 158.72 412.25 156.87 411.49 140.6 450.93 140.6 408.25 138.6 408.25 138.6 450.93 122.33 411.49 120.48 412.25 136.76 451.71 106.67 421.52 105.25 422.93 135.38 453.17 96.08 436.83 95.31 438.68 134.54 454.98 92.1 454.98 92.1 456.98 134.6 456.98 95.28 473.37 96.05 475.21 135.35 458.83 105.25 489.09 106.67 490.5 136.76 460.25 120.48 499.76 122.33 500.52 138.6 461.03 138.6 503.65 140.6 503.65 140.6 461.03 156.87 500.52 158.72 499.76 142.45 460.27 172.47 490.5 173.89 489.09 143.84 458.83 183.09 475.21 183.86 473.37 144.59 456.98 187.1 456.98 187.1 454.98" fill="#000609"/><polygon points="474.06 67.62 431.57 67.62 470.82 51.29 470.05 49.45 430.81 65.77 460.85 35.57 459.43 34.16 429.41 64.34 445.68 24.89 443.83 24.13 427.56 63.57 427.56 20.89 425.56 20.89 425.56 63.57 409.29 24.13 407.44 24.89 423.72 64.35 393.63 34.16 392.22 35.57 422.34 65.81 383.04 49.48 382.27 51.32 421.5 67.62 379.06 67.62 379.06 69.62 421.56 69.62 382.24 86.01 383.01 87.85 422.31 71.47 392.22 101.73 393.63 103.14 423.72 72.89 407.44 112.4 409.29 113.17 425.56 73.67 425.56 116.3 427.56 116.3 427.56 73.67 443.83 113.17 445.68 112.4 429.41 72.91 459.43 103.14 460.85 101.73 430.81 71.47 470.05 87.85 470.82 86.01 431.55 69.62 474.06 69.62 474.06 67.62" fill="#000609"/><polygon points="754.28 454.98 711.78 454.98 751.04 438.65 750.27 436.81 711.02 453.13 741.07 422.93 739.65 421.52 709.63 451.7 725.9 412.25 724.05 411.49 707.78 450.93 707.78 408.25 705.78 408.25 705.78 450.93 689.51 411.49 687.66 412.25 703.94 451.71 673.85 421.52 672.43 422.93 702.56 453.17 663.25 436.83 662.49 438.68 701.72 454.98 659.28 454.98 659.28 456.98 701.78 456.98 662.46 473.37 663.23 475.21 702.53 458.83 672.43 489.09 673.85 490.5 703.93 460.25 687.66 499.76 689.51 500.52 705.78 461.03 705.78 503.65 707.78 503.65 707.78 461.03 724.05 500.52 725.9 499.76 709.63 460.27 739.65 490.5 741.07 489.09 711.02 458.83 750.27 475.21 751.04 473.37 711.77 456.98 754.28 456.98 754.28 454.98" fill="#000609"/></svg>
