<?xml version="1.0" standalone="no"?>
<!DOCTYPE svg PUBLIC "-//W3C//DTD SVG 20010904//EN"
 "http://www.w3.org/TR/2001/REC-SVG-20010904/DTD/svg10.dtd">
<svg version="1.0" xmlns="http://www.w3.org/2000/svg"
 width="1120.000000pt" height="1120.000000pt" viewBox="0 0 1120.000000 1120.000000"
 preserveAspectRatio="xMidYMid meet">
<metadata>
Created by potrace 1.11, written by Peter Selinger 2001-2013
</metadata>
<g transform="translate(0.000000,1120.000000) scale(0.100000,-0.100000)"
fill="#000000" stroke="none">
<path d="M5426 9362 c-2 -1 -41 -5 -87 -7 -46 -3 -102 -8 -124 -11 -22 -3 -58
-7 -79 -9 -21 -3 -57 -7 -80 -10 -62 -9 -326 -63 -371 -77 -22 -6 -42 -12 -45
-13 -3 -1 -18 -5 -35 -9 -16 -4 -36 -9 -43 -12 -7 -2 -16 -4 -20 -5 -15 -4
-148 -49 -167 -58 -11 -4 -58 -23 -105 -41 -123 -48 -376 -165 -390 -181 -3
-3 -21 -13 -40 -23 -99 -50 -360 -220 -401 -260 -9 -9 -19 -16 -22 -16 -4 0
-17 -9 -29 -19 -13 -10 -70 -58 -128 -106 -182 -152 -382 -361 -543 -568 -69
-89 -232 -328 -250 -367 -4 -8 -17 -31 -29 -50 -49 -79 -204 -394 -214 -435
-1 -5 -9 -27 -18 -47 -9 -21 -16 -40 -16 -43 0 -3 -7 -19 -15 -35 -9 -17 -13
-30 -9 -30 4 0 2 -6 -3 -12 -11 -14 -64 -171 -88 -260 -8 -32 -22 -84 -31
-115 -8 -32 -17 -69 -19 -83 -2 -14 -4 -25 -5 -25 -3 0 -48 -250 -56 -315 -11
-90 -28 -293 -27 -327 1 -13 -2 -24 -6 -24 -7 -2 -31 -5 -91 -13 -25 -4 -74
-12 -110 -17 -36 -6 -78 -13 -95 -14 -37 -4 -105 -15 -125 -20 -8 -2 -35 -7
-60 -10 -78 -11 -131 -20 -275 -46 -60 -12 -123 -22 -140 -24 -16 -2 -30 -4
-30 -5 0 -2 -3 -2 -90 -20 -33 -6 -71 -13 -85 -15 -14 -2 -25 -4 -25 -5 0 -1
-9 -3 -20 -5 -21 -4 -78 -15 -105 -20 -8 -2 -15 -4 -15 -5 0 -1 -12 -3 -26 -5
-14 -2 -45 -9 -70 -15 -24 -7 -55 -14 -69 -16 -47 -5 -205 -46 -214 -55 -6 -5
-3 -34 7 -71 9 -35 24 -97 33 -138 9 -41 22 -97 30 -123 7 -27 13 -52 13 -55
-1 -4 0 -9 1 -12 2 -7 8 -29 14 -60 3 -14 10 -43 15 -65 8 -32 24 -103 37
-157 1 -5 2 -14 3 -20 4 -41 22 -41 181 2 19 5 49 12 67 14 17 2 35 6 40 9 4
3 24 8 43 11 19 3 46 8 60 11 14 3 35 7 48 9 12 3 26 7 30 10 4 2 28 7 52 10
48 6 81 12 108 20 9 3 33 7 52 10 19 3 46 8 60 11 14 3 39 8 55 10 17 3 80 14
140 25 61 11 126 22 145 25 19 3 46 7 60 10 14 2 45 7 70 11 24 3 47 7 50 9 3
1 32 6 65 10 61 6 111 13 149 21 28 5 53 -3 53 -19 4 -66 34 -232 65 -352 11
-44 21 -87 23 -95 9 -44 58 -207 91 -300 3 -8 6 -17 6 -20 1 -3 8 -21 16 -40
19 -47 29 -73 32 -85 1 -5 8 -21 15 -35 15 -28 49 -102 50 -110 2 -11 88 -185
94 -190 3 -3 7 -11 9 -19 2 -8 11 -26 21 -40 9 -14 28 -47 42 -74 13 -26 27
-47 31 -47 5 0 8 -5 8 -11 0 -10 175 -278 189 -289 3 -3 26 -32 51 -65 25 -33
48 -62 51 -65 3 -3 36 -41 74 -85 76 -89 245 -258 349 -350 37 -33 73 -65 80
-70 6 -6 29 -24 51 -40 22 -16 45 -34 50 -39 18 -20 320 -226 330 -226 2 0 35
-19 72 -41 38 -23 82 -48 98 -56 17 -7 37 -18 45 -23 14 -9 150 -73 240 -113
64 -28 184 -74 240 -91 30 -10 64 -21 75 -25 50 -20 304 -87 370 -98 40 -7 59
-11 63 -13 1 -2 10 -3 20 -4 27 -3 125 -18 147 -22 25 -5 85 -13 162 -21 90
-9 569 -9 658 0 121 13 137 15 170 20 17 3 48 8 70 12 23 3 52 7 65 10 172 33
152 29 305 70 132 36 138 37 165 48 14 5 89 30 100 32 3 1 14 5 25 10 11 4 49
19 85 33 70 27 126 50 207 88 28 13 56 24 62 24 5 0 11 3 13 8 2 4 44 27 93
52 50 25 92 48 95 51 3 3 34 22 70 43 97 56 154 94 280 185 84 62 94 70 118
91 10 8 37 31 62 50 123 96 378 353 474 476 11 15 28 35 36 43 8 9 26 32 40
51 13 19 30 41 37 48 7 7 13 17 13 21 0 4 8 16 18 27 24 26 142 206 180 273
l31 55 -57 33 c-31 18 -65 36 -74 39 -10 4 -18 10 -18 15 0 5 -4 9 -9 9 -9 0
-384 222 -408 241 -7 6 -13 8 -13 3 0 -5 -4 -4 -8 1 -9 14 -160 105 -172 105
-6 0 -10 3 -10 8 0 4 -13 13 -30 20 -16 7 -45 24 -64 37 l-36 24 -15 -22 c-37
-51 -85 -129 -85 -138 0 -5 -4 -9 -9 -9 -5 0 -12 -8 -15 -18 -4 -10 -14 -27
-24 -38 -9 -11 -44 -55 -77 -99 -72 -95 -266 -293 -386 -393 -48 -40 -89 -72
-93 -72 -7 0 -23 -12 -57 -42 -10 -10 -19 -15 -19 -10 0 4 -4 2 -8 -3 -17 -24
-148 -103 -297 -180 -85 -44 -293 -132 -329 -140 -6 -1 -20 -5 -31 -9 -53 -20
-73 -26 -104 -31 -19 -3 -41 -10 -50 -14 -14 -8 -53 -17 -116 -26 -11 -2 -20
-4 -20 -5 0 -2 -35 -10 -74 -15 -19 -3 -46 -7 -60 -10 -76 -12 -243 -27 -286
-25 -16 1 -34 2 -40 1 -51 -4 -115 -5 -115 -1 0 3 -39 6 -88 6 -228 3 -583 82
-807 180 -22 10 -42 18 -45 19 -3 0 -16 7 -30 15 -14 7 -26 13 -28 12 -5 -4
-188 91 -240 124 -29 19 -55 34 -58 34 -7 0 -92 59 -118 83 -11 9 -23 17 -28
17 -4 0 -18 8 -30 19 -174 144 -224 188 -284 249 -39 40 -87 91 -105 114 -19
23 -41 49 -50 57 -47 47 -229 309 -229 330 0 6 -4 11 -10 11 -5 0 -10 6 -10
14 0 8 -4 16 -8 18 -14 6 -130 249 -172 363 -13 33 -26 69 -31 80 -10 25 -66
219 -74 260 -7 31 -12 62 -19 105 -3 14 -5 25 -6 25 -2 0 -7 27 -13 72 l-6 38
59 3 c32 2 68 5 79 7 11 2 62 7 113 10 51 4 109 9 128 11 19 2 73 6 120 9 47
3 108 7 135 10 28 2 95 7 150 10 181 11 226 14 235 20 6 4 10 1 10 -5 0 -6 4
-9 9 -6 9 6 121 14 316 21 72 3 180 7 240 10 725 30 1801 21 2485 -20 36 -2
103 -6 150 -9 47 -3 126 -8 175 -11 50 -2 113 -7 140 -10 28 -3 88 -8 135 -11
47 -3 101 -7 120 -8 19 -2 71 -7 115 -10 44 -4 100 -9 125 -11 53 -6 148 -15
205 -20 47 -4 145 -14 195 -21 19 -3 58 -7 85 -9 84 -8 138 -14 175 -20 19 -2
58 -7 85 -10 28 -3 61 -7 75 -10 14 -2 50 -7 80 -11 97 -11 253 -32 286 -38
10 -2 46 -7 79 -11 68 -8 88 -11 130 -18 17 -3 50 -9 75 -13 25 -4 50 -8 55
-9 16 -1 118 -17 140 -21 28 -6 144 -25 180 -30 17 -3 41 -7 55 -11 35 -9 44
-10 87 -17 33 -5 69 -11 173 -31 14 -3 48 -9 75 -15 28 -6 59 -12 70 -14 11
-3 54 -11 95 -20 41 -8 89 -18 105 -21 44 -9 66 -14 149 -34 22 -5 43 -8 47
-6 3 3 12 33 19 67 7 35 14 68 16 73 5 20 73 332 78 356 2 13 10 47 16 74 7
28 14 63 17 79 2 16 8 39 13 51 13 33 2 42 -70 58 -3 0 -30 7 -60 14 -30 8
-64 16 -75 18 -20 4 -72 15 -90 19 -17 5 -176 42 -220 52 -11 3 -29 7 -40 8
-11 2 -42 9 -70 16 -27 6 -61 13 -75 15 -14 3 -90 18 -170 35 -80 17 -158 33
-175 35 -16 3 -43 8 -60 11 -40 10 -55 12 -90 17 -26 4 -107 17 -195 31 -14 3
-25 5 -25 6 0 1 -11 3 -25 5 -14 1 -43 5 -65 8 -22 3 -64 9 -92 13 l-53 7 -1
41 c-2 79 -16 246 -24 276 -3 8 -7 41 -10 73 -4 32 -9 68 -11 80 -3 12 -7 31
-9 42 -3 20 -9 47 -20 95 -3 14 -8 39 -11 55 -3 17 -14 64 -25 105 -11 41 -22
84 -24 95 -8 35 -93 291 -115 347 -12 29 -32 75 -43 102 -12 28 -21 54 -20 58
2 4 -2 8 -7 8 -6 0 -10 7 -10 14 0 19 -132 277 -195 381 -59 97 -137 218 -145
225 -4 3 -26 34 -50 70 -24 36 -46 67 -50 70 -3 3 -35 41 -70 85 -36 44 -80
98 -100 120 -43 49 -283 288 -331 330 -122 106 -278 224 -409 309 -41 27 -87
57 -102 67 -15 11 -29 19 -32 19 -3 0 -31 15 -63 34 -32 19 -60 34 -63 34 -3
0 -27 13 -55 29 -27 16 -66 36 -85 45 -19 9 -66 30 -105 48 -118 55 -438 172
-505 185 -62 12 -87 18 -95 23 -5 3 -16 7 -25 8 -8 1 -26 4 -40 7 -14 3 -36 9
-50 12 -61 13 -250 46 -300 51 -30 3 -73 7 -95 9 -119 13 -197 17 -353 18 -96
1 -175 1 -176 -1z m410 -1077 c16 -3 47 -8 69 -9 37 -4 152 -21 200 -31 129
-26 372 -101 465 -142 30 -14 87 -39 125 -56 39 -17 82 -39 98 -50 15 -10 27
-16 27 -13 0 4 19 -6 43 -21 23 -14 60 -38 82 -51 47 -29 183 -121 205 -138
123 -98 381 -334 365 -334 -2 0 6 -10 18 -23 27 -27 73 -82 107 -127 14 -18
31 -39 38 -46 6 -7 12 -16 12 -21 0 -4 11 -20 25 -35 14 -15 25 -30 25 -32 0
-3 18 -32 40 -63 22 -32 40 -64 40 -70 0 -7 4 -13 8 -13 4 0 25 -35 47 -77 22
-43 46 -86 54 -95 8 -10 11 -18 7 -18 -4 0 1 -15 12 -32 10 -18 34 -69 52
-113 18 -44 36 -88 41 -97 5 -10 9 -22 9 -27 0 -5 5 -22 12 -38 6 -15 13 -35
14 -43 1 -8 9 -35 18 -59 9 -24 16 -52 16 -62 0 -11 4 -19 8 -19 4 0 8 -8 8
-17 1 -10 4 -29 7 -43 11 -47 17 -75 23 -104 2 -16 6 -32 8 -35 2 -3 7 -27 10
-53 16 -123 18 -144 21 -159 3 -17 -5 -17 -150 -4 -44 4 -102 9 -130 10 -71 5
-207 14 -300 21 -44 3 -116 7 -160 9 -44 2 -120 7 -170 10 -143 8 -496 22
-793 30 -107 3 -197 7 -201 9 -4 3 -13 1 -20 -3 -7 -5 -28 -5 -47 -1 -20 5
-34 4 -34 -2 0 -5 -6 -6 -12 -1 -16 10 -958 11 -958 1 0 -4 -10 -4 -22 0 -13
4 -36 6 -53 5 -16 -1 -131 -4 -255 -7 -349 -9 -651 -22 -970 -41 -30 -2 -109
-6 -175 -10 -66 -4 -142 -9 -170 -11 -91 -6 -179 -13 -250 -19 -130 -11 -160
-13 -247 -20 l-87 -6 5 43 c10 95 36 236 59 328 9 36 18 74 20 85 20 89 101
305 166 443 27 57 49 107 49 112 0 5 4 10 8 12 4 2 23 30 41 63 35 62 140 226
151 235 3 3 17 21 30 40 13 19 27 37 30 40 3 3 23 28 45 55 31 40 170 188 231
249 24 23 128 112 148 125 12 8 23 17 26 20 15 18 217 161 226 161 3 0 25 13
48 28 52 35 221 121 306 157 36 14 79 32 95 40 29 12 184 63 215 70 8 2 27 8
41 13 14 6 43 13 65 16 21 4 53 11 69 16 17 5 47 11 68 14 140 21 179 26 267
33 41 3 76 6 77 7 5 5 332 -4 359 -9z"/>
</g>
</svg>
