<svg id="artwork" xmlns="http://www.w3.org/2000/svg" viewBox="0 0 800 600"><rect x="465.9" y="55.65" width="2" height="488.7" transform="translate(-64.09 138.62) rotate(-15.82)" fill="#000609"/><rect x="732.4" y="55.65" width="2" height="488.7" transform="translate(-54 211.25) rotate(-15.82)" fill="#000609"/><polygon points="266.14 535.37 132.76 64.9 134.76 64.63 268.06 534.83 266.14 535.37" fill="#000609"/><polygon points="262.7 335.9 0.6 442 0.6 366.6 262.7 260.5 262.7 335.9" fill="#0a65db"/><polygon points="262.7 189.7 0.6 295.8 0.6 220.5 262.7 114.4 262.7 189.7" fill="#ff491e"/><polygon points="800 229.8 537.9 335.8 537.9 260.5 800 154.4 800 229.8" fill="#0a65db"/><polygon points="800 376 537.9 482.1 537.9 406.7 800 300.5 800 376" fill="#000609"/><rect x="262.7" y="189.7" width="275.3" height="70.7" fill="#fbc3d4"/><rect x="262.7" y="335.9" width="275.3" height="70.7" fill="#ffd00d"/><polygon points="1.56 535.37 -0.36 534.83 132.76 64.9 134.76 65.17 1.56 535.37" fill="#000609"/><polygon points="268.22 534.8 266.14 534.83 399.18 65.17 401.26 65.17 268.22 534.8" fill="#000609"/><polygon points="534.62 534.83 532.54 534.83 665.67 65.2 667.76 65.17 534.62 534.83" fill="#000609"/></svg>
