<svg id="artwork" xmlns="http://www.w3.org/2000/svg" viewBox="0 0 800 600"><polygon points="414.8 418.8 374.22 418.8 411.71 403.23 410.94 401.38 373.44 416.96 402.06 388.17 400.65 386.76 372.05 415.51 387.53 378.03 385.68 377.26 370.2 414.76 370.2 374.2 368.2 374.2 368.2 414.74 352.77 377.25 350.92 378.01 366.36 415.53 337.75 386.76 336.34 388.18 364.96 416.96 327.46 401.38 326.69 403.23 364.18 418.8 323.6 418.8 323.6 420.8 364.2 420.8 326.72 436.42 327.49 438.26 364.95 422.65 336.34 451.43 337.75 452.83 366.36 424.07 350.92 461.6 352.76 462.36 368.2 424.86 368.2 465.4 370.2 465.4 370.2 424.84 385.69 462.34 387.53 461.57 372.05 424.08 400.65 452.84 402.06 451.43 373.45 422.65 410.92 438.27 411.69 436.42 374.2 420.8 414.8 420.8 414.8 418.8" fill="#000609"/><polygon points="127.7 365.1 255.3 476.4 255.3 253.8 127.7 365.1" fill="#fbc3d4"/><polygon points="127.7 365.1 0 253.8 0 476.4 127.7 365.1" fill="#ffd00d"/><rect x="483.1" y="253.8" width="158.4" height="150.4" fill="#0a65db"/><rect x="641.6" y="404.2" width="158.4" height="150.4" fill="#fbc3d4"/><path d="M255.3,26a113.91,113.91,0,0,1,0,227.8Z" fill="#ff491e"/><path d="M483.1,253.8A113.91,113.91,0,0,1,480.9,26h2.2Z" fill="#ffd00d"/><path d="M701,520.7H68.4V94.2H701Zm-630.6-2H699V96.2H70.4Z" fill="#000609"/><path d="M755.4,575H122.8V148.5H755.4Zm-630.6-2H753.4V150.5H124.8Z" fill="#000609"/></svg>
