<svg id="artwork" xmlns="http://www.w3.org/2000/svg" viewBox="0 0 800 600"><rect x="33.49" y="165.5" width="198.41" height="198.41" transform="translate(-40.86 24.8) rotate(-9.26)" fill="#ffd00d"/><path d="M201.6,573.7H1.1V309.1a98.41,98.41,0,0,1,98.3-98.3h3.8a98.51,98.51,0,0,1,98.4,98.4Zm-198.5-2H199.6V309.2a96.5,96.5,0,0,0-96.4-96.4H99.48A96.43,96.43,0,0,0,3.1,309.1Z" fill="#000609"/><circle cx="329.6" cy="445.9" r="128" fill="#ff491e"/><circle cx="81.1" cy="114" r="58.7" fill="#fbc3d4"/><path d="M610,28.9c145.9,50.7,223.1,210,172.4,355.9s-210,223-355.9,172.3Z" fill="#0a65db"/><rect x="377.2" y="26.1" width="2" height="73.7" fill="#000609"/><rect x="355.45" y="28.94" width="2" height="73.72" transform="translate(-4.88 94.6) rotate(-15.02)" fill="#000609"/><rect x="335.1" y="37.37" width="2" height="73.65" transform="translate(7.89 177.85) rotate(-29.98)" fill="#000609"/><rect x="317.65" y="50.81" width="2" height="73.68" transform="translate(31.35 250.99) rotate(-45)" fill="#000609"/><rect x="304.25" y="68.32" width="2" height="73.57" transform="matrix(0.5, -0.87, 0.87, 0.5, 61.55, 316.84)" fill="#000609"/><rect x="295.85" y="88.6" width="2" height="73.59" transform="translate(99.06 379.81) rotate(-75.04)" fill="#000609"/><rect x="257.1" y="146.2" width="73.7" height="2" fill="#000609"/><rect x="260.04" y="168.05" width="73.62" height="2" transform="translate(-33.68 82.75) rotate(-15.03)" fill="#000609"/><rect x="268.47" y="188.4" width="73.57" height="2" transform="translate(-53.81 178.05) rotate(-30.01)" fill="#000609"/><rect x="281.81" y="205.85" width="73.68" height="2" transform="translate(-52.93 285.9) rotate(-45)" fill="#000609"/><rect x="299.27" y="219.2" width="73.65" height="2" transform="translate(-22.56 401.36) rotate(-60.03)" fill="#000609"/><rect x="319.64" y="227.65" width="73.62" height="2" transform="translate(43.2 513.63) rotate(-74.97)" fill="#000609"/><rect x="377.2" y="194.7" width="2" height="73.6" fill="#000609"/><rect x="399.05" y="191.84" width="2" height="73.62" transform="translate(-45.62 111.61) rotate(-15.04)" fill="#000609"/><rect x="419.4" y="183.37" width="2" height="73.65" transform="translate(-53.79 239.5) rotate(-29.98)" fill="#000609"/><rect x="436.85" y="170.01" width="2" height="73.68" transform="translate(-18.02 370.19) rotate(-45)" fill="#000609"/><rect x="450.2" y="152.57" width="2" height="73.65" transform="translate(61.7 485.61) rotate(-60.02)" fill="#000609"/><rect x="458.65" y="132.24" width="2" height="73.62" transform="translate(177.14 569.1) rotate(-74.96)" fill="#000609"/><rect x="425.7" y="146.2" width="73.7" height="2" fill="#000609"/><rect x="422.85" y="124.4" width="73.6" height="2" transform="translate(-16.79 122.73) rotate(-14.94)" fill="#000609"/><rect x="414.37" y="104.1" width="73.65" height="2" transform="translate(7.89 239.64) rotate(-29.99)" fill="#000609"/><rect x="401.01" y="86.65" width="73.68" height="2" transform="translate(66.27 335.28) rotate(-45)" fill="#000609"/><rect x="383.57" y="73.2" width="73.65" height="2" transform="translate(146.11 401.32) rotate(-60.03)" fill="#000609"/><rect x="363.19" y="64.8" width="73.72" height="2" transform="translate(232.78 435.11) rotate(-74.97)" fill="#000609"/></svg>
